<svg xmlns="http://www.w3.org/2000/svg" width="64" height="64" viewBox="0 0 64 64" fill="none">
  <defs>
    <linearGradient id="lg1" x1="0" y1="0" x2="1" y2="1">
      <stop offset="0" stop-color="#7C3AED"></stop>
      <stop offset="1" stop-color="#2D0E6B"></stop>
    </linearGradient>
  </defs>
  <g>
    <circle cx="32" cy="10" r="4" fill="#F59E0B"></circle>
    <path d="M24 22 Q32 14 40 22 L38 28 Q32 25 26 28 Z" fill="#F59E0B"></path>
    <circle cx="51" cy="19" r="4" fill="#7C3AED"></circle>
    <path d="M45 30 Q51 24 57 30 L55 36 Q51 33 47 36 Z" fill="#7C3AED"></path>
    <circle cx="51" cy="45" r="4" fill="#2D0E6B"></circle>
    <path d="M45 55 Q51 50 57 55 L55 60 Q51 58 47 60 Z" fill="#2D0E6B"></path>
    <circle cx="32" cy="54" r="4" fill="#EC4899"></circle>
    <path d="M24 62 Q32 58 40 62 L40 64 L24 64 Z" fill="#EC4899"></path>
    <circle cx="13" cy="45" r="4" fill="#06B6D4"></circle>
    <path d="M7 55 Q13 50 19 55 L17 60 Q13 58 9 60 Z" fill="#06B6D4"></path>
    <circle cx="13" cy="19" r="4" fill="#10B981"></circle>
    <path d="M7 30 Q13 24 19 30 L17 36 Q13 33 9 36 Z" fill="#10B981"></path>
  </g>
</svg>
